<?xml version="1.0" encoding="UTF-8"?>
<svg xmlns="http://www.w3.org/2000/svg" viewBox="0 0 680 260" width="1700" height="650">
<rect width="680" height="260" fill="white"/>
<text x="155" y="22" text-anchor="middle" font-size="13" font-weight="700" fill="#6b7280" font-family="Droid Sans Fallback">DAO 架構（轉型前）</text>
<rect x="80" y="38" width="150" height="40" rx="6" fill="#f3e8ff" stroke="#8b5cf6" stroke-width="1.5"/>
<text x="155" y="63" text-anchor="middle" font-size="12" font-weight="600" fill="#6d28d9" font-family="Droid Sans Fallback">ACX 代幣持有者</text>
<rect x="80" y="108" width="150" height="40" rx="6" fill="#f3e8ff" stroke="#8b5cf6" stroke-width="1.5"/>
<text x="155" y="133" text-anchor="middle" font-size="12" font-weight="600" fill="#6d28d9" font-family="Droid Sans Fallback">DAO 投票治理</text>
<rect x="80" y="178" width="150" height="40" rx="6" fill="#f3e8ff" stroke="#8b5cf6" stroke-width="1.5"/>
<text x="155" y="203" text-anchor="middle" font-size="12" font-weight="600" fill="#6d28d9" font-family="Droid Sans Fallback">Across Protocol</text>
<line x1="155" y1="78" x2="155" y2="103" stroke="#8b5cf6" stroke-width="1.5"/>
<polygon points="152,103 155,110 158,103" fill="#8b5cf6"/>
<line x1="155" y1="148" x2="155" y2="173" stroke="#8b5cf6" stroke-width="1.5"/>
<polygon points="152,173 155,180 158,173" fill="#8b5cf6"/>
<text x="155" y="240" text-anchor="middle" font-size="10" fill="#9ca3af" font-family="Droid Sans Fallback">無法律實體，機構無法簽約</text>

<line x1="270" y1="128" x2="395" y2="128" stroke="#dc2626" stroke-width="2.5"/>
<polygon points="395,124 405,128 395,132" fill="#dc2626"/>
<text x="332" y="118" text-anchor="middle" font-size="12" font-weight="700" fill="#dc2626" font-family="Droid Sans Fallback">轉型</text>
<text x="332" y="150" text-anchor="middle" font-size="10" fill="#6b7280" font-family="Droid Sans Fallback">ACX 1:1 換股份</text>
<text x="332" y="165" text-anchor="middle" font-size="10" fill="#6b7280" font-family="Droid Sans Fallback">或 $0.04375 賣回</text>

<text x="505" y="22" text-anchor="middle" font-size="13" font-weight="700" fill="#6b7280" font-family="Droid Sans Fallback">公司架構（轉型後）</text>
<rect x="430" y="38" width="150" height="40" rx="6" fill="#dbeafe" stroke="#2563eb" stroke-width="1.5"/>
<text x="505" y="63" text-anchor="middle" font-size="12" font-weight="600" fill="#1e40af" font-family="Droid Sans Fallback">AcrossCo 股東</text>
<rect x="430" y="108" width="150" height="40" rx="6" fill="#dbeafe" stroke="#2563eb" stroke-width="1.5"/>
<text x="505" y="133" text-anchor="middle" font-size="12" font-weight="600" fill="#1e40af" font-family="Droid Sans Fallback">董事會 + 管理層</text>
<rect x="430" y="178" width="150" height="40" rx="6" fill="#dbeafe" stroke="#2563eb" stroke-width="1.5"/>
<text x="505" y="203" text-anchor="middle" font-size="12" font-weight="600" fill="#1e40af" font-family="Droid Sans Fallback">Across Protocol</text>
<line x1="505" y1="78" x2="505" y2="103" stroke="#2563eb" stroke-width="1.5"/>
<polygon points="502,103 505,110 508,103" fill="#2563eb"/>
<line x1="505" y1="148" x2="505" y2="173" stroke="#2563eb" stroke-width="1.5"/>
<polygon points="502,173 505,180 508,173" fill="#2563eb"/>
<text x="505" y="240" text-anchor="middle" font-size="10" fill="#9ca3af" font-family="Droid Sans Fallback">美國法人，可與機構簽約</text>
</svg>
