<?xml version="1.0" encoding="UTF-8"?>
<svg xmlns="http://www.w3.org/2000/svg" viewBox="0 0 680 220" width="1700" height="550">
<rect width="680" height="220" fill="white"/>
<rect x="10" y="70" width="110" height="54" rx="8" fill="#fef3c7" stroke="#d97706" stroke-width="1.5"/>
<text x="65" y="93" text-anchor="middle" font-size="12" font-weight="600" fill="#92400e" font-family="Droid Sans Fallback">自託管錢包</text>
<text x="65" y="110" text-anchor="middle" font-size="10" fill="#92400e" font-family="Droid Sans Fallback">（無中介）</text>

<rect x="160" y="70" width="110" height="54" rx="8" fill="#fee2e2" stroke="#dc2626" stroke-width="1.5"/>
<text x="215" y="93" text-anchor="middle" font-size="12" font-weight="600" fill="#991b1b" font-family="Droid Sans Fallback">交易所</text>
<text x="215" y="110" text-anchor="middle" font-size="10" fill="#991b1b" font-family="Droid Sans Fallback">強化身份查核</text>

<rect x="310" y="70" width="110" height="54" rx="8" fill="#fee2e2" stroke="#dc2626" stroke-width="1.5"/>
<text x="365" y="93" text-anchor="middle" font-size="12" font-weight="600" fill="#991b1b" font-family="Droid Sans Fallback">穩定幣發行商</text>
<text x="365" y="110" text-anchor="middle" font-size="10" fill="#991b1b" font-family="Droid Sans Fallback">凍結可疑錢包</text>

<rect x="460" y="70" width="110" height="54" rx="8" fill="#fee2e2" stroke="#dc2626" stroke-width="1.5"/>
<text x="515" y="93" text-anchor="middle" font-size="12" font-weight="600" fill="#991b1b" font-family="Droid Sans Fallback">法幣出入金</text>
<text x="515" y="110" text-anchor="middle" font-size="10" fill="#991b1b" font-family="Droid Sans Fallback">管道卡關</text>

<rect x="610" y="70" width="60" height="54" rx="8" fill="#dbeafe" stroke="#2563eb" stroke-width="1.5"/>
<text x="640" y="100" text-anchor="middle" font-size="11" font-weight="600" fill="#1e40af" font-family="Droid Sans Fallback">傳統</text>
<text x="640" y="114" text-anchor="middle" font-size="11" font-weight="600" fill="#1e40af" font-family="Droid Sans Fallback">金融</text>

<line x1="120" y1="97" x2="155" y2="97" stroke="#9ca3af" stroke-width="2"/>
<polygon points="155,94 163,97 155,100" fill="#9ca3af"/>
<line x1="270" y1="97" x2="305" y2="97" stroke="#9ca3af" stroke-width="2"/>
<polygon points="305,94 313,97 305,100" fill="#9ca3af"/>
<line x1="420" y1="97" x2="455" y2="97" stroke="#9ca3af" stroke-width="2"/>
<polygon points="455,94 463,97 455,100" fill="#9ca3af"/>
<line x1="570" y1="97" x2="605" y2="97" stroke="#9ca3af" stroke-width="2"/>
<polygon points="605,94 613,97 605,100" fill="#9ca3af"/>

<circle cx="215" cy="50" r="11" fill="#dc2626"/>
<text x="215" y="54" text-anchor="middle" font-size="12" fill="white" font-weight="700" font-family="Droid Sans Fallback">1</text>
<circle cx="365" cy="50" r="11" fill="#dc2626"/>
<text x="365" y="54" text-anchor="middle" font-size="12" fill="white" font-weight="700" font-family="Droid Sans Fallback">2</text>
<circle cx="515" cy="50" r="11" fill="#dc2626"/>
<text x="515" y="54" text-anchor="middle" font-size="12" fill="white" font-weight="700" font-family="Droid Sans Fallback">3</text>

<path d="M 65 130 C 65 190, 640 190, 640 130" stroke="#d97706" stroke-width="1.5" stroke-dasharray="6,4" fill="none"/>
<polygon points="640,130 636,140 644,140" fill="#d97706"/>
<text x="350" y="195" text-anchor="middle" font-size="11" fill="#d97706" font-style="italic" font-family="Droid Sans Fallback">P2P 直接轉帳——目前繞過所有卡關點</text>
<text x="10" y="215" font-size="10" fill="#6b7280" font-family="Droid Sans Fallback">紅色 = BIS 提議的監管卡關點    橘色虛線 = 目前無法監管的點對點路徑</text>
</svg>
