<?xml version="1.0" encoding="UTF-8"?>
<svg xmlns="http://www.w3.org/2000/svg" viewBox="0 0 700 330" width="1750" height="825">
<rect width="700" height="330" fill="white"/>

<text x="340" y="22" text-anchor="middle" font-size="13" font-weight="700" fill="#6b7280" font-family="Droid Sans Fallback">模式 A：Ondo Finance（間接模式）</text>

<rect x="30" y="40" width="100" height="44" rx="6" fill="#f3e8ff" stroke="#8b5cf6" stroke-width="1.5"/>
<text x="80" y="58" text-anchor="middle" font-size="11" font-weight="600" fill="#6d28d9" font-family="Droid Sans Fallback">鏈上</text>
<text x="80" y="73" text-anchor="middle" font-size="11" font-weight="600" fill="#6d28d9" font-family="Droid Sans Fallback">投資人</text>

<line x1="130" y1="62" x2="170" y2="62" stroke="#8b5cf6" stroke-width="1.5"/>
<polygon points="170,59 178,62 170,65" fill="#8b5cf6"/>
<text x="150" y="55" text-anchor="middle" font-size="9" fill="#8b5cf6" font-family="Droid Sans Fallback">買代幣</text>

<rect x="182" y="40" width="100" height="44" rx="6" fill="#f3e8ff" stroke="#8b5cf6" stroke-width="1.5"/>
<text x="232" y="58" text-anchor="middle" font-size="11" font-weight="600" fill="#6d28d9" font-family="Droid Sans Fallback">Ondo</text>
<text x="232" y="73" text-anchor="middle" font-size="11" font-weight="600" fill="#6d28d9" font-family="Droid Sans Fallback">鑄造代幣</text>

<line x1="282" y1="56" x2="330" y2="56" stroke="#8b5cf6" stroke-width="1.5"/>
<polygon points="330,53 338,56 330,59" fill="#8b5cf6"/>
<line x1="330" y1="68" x2="282" y2="68" stroke="#8b5cf6" stroke-width="1.5"/>
<polygon points="282,65 274,68 282,71" fill="#8b5cf6"/>
<text x="306" y="50" text-anchor="middle" font-size="9" fill="#8b5cf6" font-family="Droid Sans Fallback">同步</text>

<rect x="340" y="40" width="100" height="44" rx="6" fill="#e0e7ff" stroke="#6366f1" stroke-width="1.5"/>
<text x="390" y="58" text-anchor="middle" font-size="11" font-weight="600" fill="#4338ca" font-family="Droid Sans Fallback">傳統券商</text>
<text x="390" y="73" text-anchor="middle" font-size="11" font-weight="600" fill="#4338ca" font-family="Droid Sans Fallback">買賣股票</text>

<line x1="440" y1="62" x2="480" y2="62" stroke="#6366f1" stroke-width="1.5"/>
<polygon points="480,59 488,62 480,65" fill="#6366f1"/>

<rect x="492" y="40" width="100" height="44" rx="6" fill="#e0e7ff" stroke="#6366f1" stroke-width="1.5"/>
<text x="542" y="58" text-anchor="middle" font-size="11" font-weight="600" fill="#4338ca" font-family="Droid Sans Fallback">股票交易所</text>
<text x="542" y="73" text-anchor="middle" font-size="11" font-weight="600" fill="#4338ca" font-family="Droid Sans Fallback">NYSE / 等</text>

<text x="622" y="67" font-size="10" fill="#6b7280" font-style="italic" font-family="Droid Sans Fallback">間接持有</text>

<line x1="30" y1="112" x2="660" y2="112" stroke="#e5e7eb" stroke-width="1" stroke-dasharray="4,4"/>

<text x="340" y="142" text-anchor="middle" font-size="13" font-weight="700" fill="#6b7280" font-family="Droid Sans Fallback">模式 B：Nasdaq + Kraken（直接模式）</text>

<rect x="30" y="162" width="110" height="48" rx="6" fill="#dbeafe" stroke="#2563eb" stroke-width="1.5"/>
<text x="85" y="182" text-anchor="middle" font-size="11" font-weight="600" fill="#1e40af" font-family="Droid Sans Fallback">Nasdaq</text>
<text x="85" y="199" text-anchor="middle" font-size="11" font-weight="600" fill="#1e40af" font-family="Droid Sans Fallback">發行股票</text>

<line x1="140" y1="186" x2="185" y2="186" stroke="#2563eb" stroke-width="1.5"/>
<polygon points="185,183 193,186 185,189" fill="#2563eb"/>
<text x="162" y="179" text-anchor="middle" font-size="9" fill="#2563eb" font-family="Droid Sans Fallback">代幣化</text>

<rect x="196" y="162" width="130" height="48" rx="6" fill="#dbeafe" stroke="#2563eb" stroke-width="1.5"/>
<text x="261" y="182" text-anchor="middle" font-size="11" font-weight="600" fill="#1e40af" font-family="Droid Sans Fallback">Kraken xStocks</text>
<text x="261" y="199" text-anchor="middle" font-size="10" fill="#1e40af" font-family="Droid Sans Fallback">1:1 擔保 + 股東權利</text>

<line x1="326" y1="175" x2="385" y2="157" stroke="#2563eb" stroke-width="1.5"/>
<polygon points="385,154 390,163 380,160" fill="#2563eb"/>
<line x1="326" y1="197" x2="385" y2="215" stroke="#2563eb" stroke-width="1.5"/>
<polygon points="385,212 390,221 380,218" fill="#2563eb"/>

<rect x="392" y="138" width="130" height="40" rx="6" fill="#dbeafe" stroke="#2563eb" stroke-width="1.5"/>
<text x="457" y="163" text-anchor="middle" font-size="11" font-weight="600" fill="#1e40af" font-family="Droid Sans Fallback">受監管機構市場</text>

<rect x="392" y="200" width="130" height="40" rx="6" fill="#fce7f3" stroke="#ec4899" stroke-width="1.5"/>
<text x="457" y="225" text-anchor="middle" font-size="11" font-weight="600" fill="#9d174d" font-family="Droid Sans Fallback">DeFi 市場</text>

<path d="M 522 178 C 545 190, 545 210, 522 222" stroke="#9ca3af" stroke-width="1.5" fill="none"/>
<polygon points="522,219 518,228 526,226" fill="#9ca3af"/>
<path d="M 532 222 C 555 210, 555 190, 532 178" stroke="#9ca3af" stroke-width="1.5" fill="none"/>
<polygon points="532,181 528,172 536,174" fill="#9ca3af"/>
<text x="572" y="203" font-size="10" fill="#6b7280" font-family="Droid Sans Fallback">自由流動</text>

<text x="622" y="186" font-size="10" fill="#2563eb" font-style="italic" font-family="Droid Sans Fallback">直接持有</text>
<text x="622" y="202" font-size="10" fill="#2563eb" font-style="italic" font-family="Droid Sans Fallback">保留投票權</text>

<text x="30" y="275" font-size="10" fill="#6b7280" font-family="Droid Sans Fallback">模式 A 需透過券商中介；模式 B 讓交易所直接合作，投資人可跨市場持有並行使股東權利</text>
<text x="30" y="293" font-size="10" fill="#6b7280" font-family="Droid Sans Fallback">NYSE + OKX、Nasdaq + Kraken 都選擇模式 B</text>
</svg>
